
<svg xmlns="http://www.w3.org/2000/svg" width="64" height="64" viewBox="0 0 64 64">
  <defs>
    <linearGradient id="bgGrad" x1="0" y1="0" x2="1" y2="1">
      <stop offset="0%" stopColor="#2563eb" />
      <stop offset="100%" stopColor="#4f46e5" />
    </linearGradient>
    <linearGradient id="coinGrad" x1="0" y1="0" x2="1" y2="1">
      <stop offset="0%" stopColor="#fbbf24" />
      <stop offset="100%" stopColor="#f59e0b" />
    </linearGradient>
    <filter id="shadow" x="-20%" y="-20%" width="140%" height="140%">
      <feDropShadow dx="0" dy="1.92" stdDeviation="2.56" flood-color="#000" flood-opacity="0.3" />
    </filter>
  </defs>

  <!-- Background container -->
  <rect width="64" height="64" rx="14.08" fill="url(#bgGrad)" />

  <!-- Inner Content Group -->
  <g transform="translate(3.2, 3.2) scale(0.5760000000000001)">
    <!-- Wallet Main Body with shadow -->
    <path d="M12 25 C12 20, 16 16, 22 16 L78 16 C84 16, 88 20, 88 25 L88 75 C88 80, 84 84, 78 84 L22 84 C16 84, 12 80, 12 75 Z" fill="#ffffff" filter="url(#shadow)" opacity="0.95" />
    
    <!-- Wallet Flap Pocket -->
    <path d="M52 38 C52 35, 55 33, 60 33 L88 33 L88 67 L60 67 C55 67, 52 65, 52 62 Z" fill="#e0e7ff" />
    
    <!-- Pocket Lock / Button -->
    <circle cx="68" cy="50" r="5" fill="#2563eb" />
    <circle cx="68" cy="50" r="2.5" fill="#ffffff" />

    <!-- Upward Trend Arrow / Growth Chart -->
    <path d="M26 62 L42 46 L54 55 L74 35" fill="none" stroke="#2563eb" stroke-width="4.5" stroke-linecap="round" stroke-linejoin="round" />
    <path d="M64 35 L74 35 L74 45" fill="none" stroke="#2563eb" stroke-width="4.5" stroke-linecap="round" stroke-linejoin="round" />

    <!-- Golden Coin -->
    <circle cx="34" cy="30" r="10" fill="url(#coinGrad)" />
    <text x="34" y="34" font-family="Arial, sans-serif" font-size="12" font-weight="bold" fill="#ffffff" text-anchor="middle">$</text>
  </g>
</svg>
